<?xml version="1.0" encoding="utf-8"?>
<!-- Generator: Adobe Illustrator 18.1.1, SVG Export Plug-In . SVG Version: 6.00 Build 0)  -->
<svg version="1.1" xmlns="http://www.w3.org/2000/svg" xmlns:xlink="http://www.w3.org/1999/xlink" x="0px" y="0px"
	 viewBox="0 0 960 960" enable-background="new 0 0 960 960" xml:space="preserve">
<g id="图层_1">
	<path fill="#36CFC9" d="M153.4,415.5c4.9-40.6,7-110.6,128.5-151.1c52.6-17.5,388.3-98.1,536.9-136.4c16.3-4.2,19.5-14.7,2.1-17.7
		c-23.1-4-62.4-2.4-106.8-0.1C640.6,114,227.8,155.8,113.5,220c-49.2,27.7-92.3,67.9-91.3,156.5c0.3,30.5,5.7,90.7,17.2,145.9
		c15.3,73.2,32.6,132.5,42,161.8c17.3,54.1,43.3,105.2,63.1,110.2c10.9,2.7,12.8-7.3,13.7-18.5C158.9,766.2,149.6,447.3,153.4,415.5
		z"/>
</g>
<g id="图层_2" display="none">
	<path display="inline" fill="none" d="M290.3,447l8,159.3c0,0,1.9,23.2,15.9,28.7c14,7,108.5,53.3,108.5,53.3s8,4,19-1.3
		s286.8-133.5,286.8-133.5s23.5-13,26-52.3s8.8-139.8,8.8-139.8s0.3-30.3-19.8-32s-109.2-24.8-109.2-24.8l-308,82.3
		C326.3,387,288.2,404,290.3,447z"/>
</g>
<g id="图层_3">
	<path fill="#36CFC9" d="M864.8,142.2c-18.6,3.7-490.2,140.2-566.9,170.7c-82.4,32.8-81.4,123.1-81.4,123.1s-4,273.7,0.7,350.8
		c4.7,77.1,80.4,53.8,80.4,53.8S843.6,578.2,886.8,551c43.2-27.2,39.5-83.8,42.5-97.7c3.1-13.8,8-181.4,8-235.8
		C937.3,160.4,917.4,131.8,864.8,142.2z M515.3,666.6c-5.8,10.9-13,18.5-21.6,22.7c-5.4,2.6-10.1,3.3-14.3,1.9
		c-4.2-1.4-7.6-3.6-10.2-6.9L354.3,540.1l-2.4,173.1c0.2,12.1-2.8,23.9-9.1,35.4c-6.3,11.5-14,19.5-23.4,24c-9.1,4.4-17,4-23.6-1.3
		c-6.7-5.3-10.1-14.1-10.3-26.5l0.1-289.4c-0.2-12.2,2.9-23.9,9.4-35.2c6.4-11.3,14.3-18.7,23.5-22.4c5.6-2.2,10.7-2.7,15.2-1.3
		c4.5,1.4,8.1,3.7,11,6.9l118.5,149.4l-2.1-152c-0.1-11.7,2.8-23,8.8-33.7c6-10.7,13.2-17.8,21.7-21.2c8.7-3.5,16.1-2.3,22.1,3.5
		c6,5.8,9.1,14.5,9.2,26l1,257.2C523.9,644.4,521.1,655.7,515.3,666.6z M715.4,574.5c-4.5,8.8-10.1,14.7-16.7,18l-101.6,49.5
		c-7.4,3.6-13.8,3-19.2-1.7c-5.4-4.8-8.1-12.4-8.2-22.8l-0.5-251.8c-0.1-10.6,2.5-20.7,7.8-30.3c5.3-9.6,11.7-15.9,19.2-18.9
		l102.5-38.1c6.7-2.7,12.3-1.6,17,3.2c4.6,4.8,6.9,12,7,21.6c0.1,9.6-2.2,18.6-6.7,27.2c-4.5,8.6-10.1,14.2-16.8,17L622,375.7
		l0.5,55.4l57.9-25.2c6.3-2.7,11.6-1.9,15.9,2.5c4.3,4.4,6.4,10.9,6.5,19.6c0.1,8.7-2,17.1-6.2,25.2c-4.2,8.1-7.4,13.6-13.7,16.4
		L623,495.8l0.5,63.6l74.8-35c6.6-3.1,12.2-2.4,16.8,2c4.6,4.4,8.9,11.4,8.9,20.8C724.2,556.7,719.9,565.8,715.4,574.5z
		 M900.6,408.4c-3.5,19.4-8.6,37.6-15.5,54.7c-6.9,17.1-15.1,32.2-24.8,45.3c-9.7,13.1-20.3,23-31.6,29.6
		c-11.4,6.6-22.4,9.2-32.8,7.6c-10.4-1.6-19.8-6.7-28-15.5c-8.3-8.7-15-20.6-20.2-35.7c-5.2-15.1-8.2-32.6-9-52.7
		c-0.9-20.1,0.6-40.2,4.3-60.2c3.7-20,9.1-38.7,16.3-56c7.2-17.3,15.7-32.5,25.6-45.6c9.8-13,20.5-22.6,32-28.6
		c11.5-6,22.4-7.8,32.8-5.4c10.3,2.4,19.5,8,27.4,17.1c7.9,9,14.3,20.9,19.1,35.8c4.9,14.8,7.7,32,8.4,51.5
		C905.4,369.7,904.1,389.1,900.6,408.4z"/>
</g>
</svg>
